<svg width="64" height="64" viewBox="0 0 64 64" xmlns="http://www.w3.org/2000/svg">
  <!-- Calendar base -->
  <rect x="8" y="12" width="48" height="44" rx="4" ry="4" fill="#4F46E5" stroke="#3730A3" stroke-width="2"/>
  
  <!-- Calendar header -->
  <rect x="8" y="12" width="48" height="12" rx="4" ry="4" fill="#6366F1"/>
  <rect x="8" y="20" width="48" height="4" fill="#6366F1"/>
  
  <!-- Calendar rings -->
  <rect x="18" y="6" width="3" height="12" rx="1.5" fill="#9CA3AF"/>
  <rect x="43" y="6" width="3" height="12" rx="1.5" fill="#9CA3AF"/>
  
  <!-- Calendar grid dots -->
  <circle cx="16" cy="32" r="2" fill="#E5E7EB"/>
  <circle cx="24" cy="32" r="2" fill="#E5E7EB"/>
  <circle cx="32" cy="32" r="2" fill="#E5E7EB"/>
  <circle cx="40" cy="32" r="2" fill="#E5E7EB"/>
  <circle cx="48" cy="32" r="2" fill="#E5E7EB"/>
  
  <circle cx="16" cy="40" r="2" fill="#E5E7EB"/>
  <circle cx="24" cy="40" r="2" fill="#E5E7EB"/>
  <circle cx="32" cy="40" r="2" fill="#FEF3C7"/>
  <circle cx="40" cy="40" r="2" fill="#E5E7EB"/>
  <circle cx="48" cy="40" r="2" fill="#E5E7EB"/>
  
  <circle cx="16" cy="48" r="2" fill="#E5E7EB"/>
  <circle cx="24" cy="48" r="2" fill="#E5E7EB"/>
  <circle cx="32" cy="48" r="2" fill="#E5E7EB"/>
  <circle cx="40" cy="48" r="2" fill="#E5E7EB"/>
  
  <!-- Event indicator (star) -->
  <g transform="translate(32, 40)">
    <path d="M0,-4 L1.2,-1.2 L4,0 L1.2,1.2 L0,4 L-1.2,1.2 L-4,0 L-1.2,-1.2 Z" fill="#F59E0B"/>
  </g>
</svg>